<?xml version="1.0" encoding="UTF-8"?>
<svg width="363px" height="403px" viewBox="0 0 363 403" version="1.1" xmlns="http://www.w3.org/2000/svg" xmlns:xlink="http://www.w3.org/1999/xlink">
    <!-- Generator: Sketch 63.1 (92452) - https://sketch.com -->
    <title>fantom logo stacked blue</title>
    <desc>Created with Sketch.</desc>
    <g id="fantom-logo-stacked-blue" stroke="none" stroke-width="1" fill="none" fill-rule="evenodd">
        <rect fill="#FFFFFF" x="0" y="0" width="363" height="403"></rect>
        <path d="M168.425447,4.79517449 C175.525989,1.06827517 186.33013,1.06827517 193.430672,4.79517449 L193.430672,4.79517449 L265.885223,42.8247814 C270.216791,45.0983147 272.570523,48.5004076 272.946419,52.0004376 L273,52 L273,244 L272.988939,244.000327 C272.809297,247.722755 270.4414,251.39551 265.88525,253.808417 L265.88525,253.808417 L193.430978,292.179711 C186.330463,295.940096 175.526363,295.940096 168.425849,292.179711 L168.425849,292.179711 L95.9715766,253.808417 C91.3411693,251.356184 89.1189641,247.554896 89.0088855,243.770479 L89.019,244 L89,244 L89,52 L89.0291594,52.0008057 C89.3053476,48.4594979 91.5484948,45.1459908 95.9708961,42.8247814 L95.9708961,42.8247814 Z M100,158.98 L100,243.173 L168.425849,279.219478 C172.376077,281.335534 176.480516,283.398204 180.484009,283.555318 L180.928413,283.564839 C184.554772,283.577019 188.086635,281.929775 191.64798,280.183318 L192.931553,279.553003 L262,242.867 L262,159.724 L194.242708,195.204826 C187.257195,198.862708 176.695554,198.930447 169.577592,195.408041 L169.178414,195.204826 L100,158.98 Z M77.4266115,240 C77.4266115,247.306121 78.2848262,252.108124 79.988809,255.491124 C81.401156,258.295125 83.5202808,260.437993 87.3896634,263.0454 L87.6105614,263.193493 C88.4597157,263.759913 89.3951594,264.353375 90.5338284,265.050717 L91.8766199,265.864421 L96,268.326414 L90.085961,278 L85.4708492,275.242201 L84.6951239,274.771001 C83.3606922,273.956041 82.2546871,273.255883 81.2230353,272.56773 C70.1951914,265.211713 66.0823815,257.191733 66.0012281,240.508221 L66,240 L77.4266115,240 Z M187.001694,108.054974 L187.001694,185.945026 C187.691582,185.736394 188.332704,185.482525 188.903914,185.183417 L188.903914,185.183417 L261.529622,147.15381 C261.605834,147.113903 261.678515,147.07438 261.747701,147.035368 L261.747701,147.035368 L261.809182,147 L261.695156,146.935279 L261.529622,146.84619 L188.903914,108.816583 C188.332704,108.517475 187.691582,108.263606 187.001694,108.054974 Z M175.999591,108.189626 C175.46844,108.370088 174.970783,108.579073 174.517207,108.816583 L174.517207,108.816583 L101.8915,146.84619 C101.815287,146.886097 101.742606,146.92562 101.673421,146.964632 L101.673421,146.964632 L101.611939,147 L101.725966,147.064721 L101.8915,147.15381 L174.517207,185.183417 C174.970783,185.420927 175.46844,185.629912 175.999591,185.810374 Z M100,65.29 L100,135.018 L166.503,100.195 L100,65.29 Z M262,65.214 L196.133,99.785 L262,134.275 L262,65.214 Z M188.10446,14.8165828 C184.336583,12.8389169 177.519536,12.8389169 173.751658,14.8165828 L173.751658,14.8165828 L101.297108,52.8461896 C101.221075,52.8860972 101.148565,52.9256203 101.079543,52.9646319 L101.079543,52.9646319 L101.018206,53 L101.131964,53.0647207 L101.297108,53.1538104 L173.751658,91.1834172 C177.519536,93.1610831 184.336583,93.1610831 188.10446,91.1834172 L188.10446,91.1834172 L260.559011,53.1538104 C260.635044,53.1139028 260.707553,53.0743797 260.776576,53.0353681 L260.776576,53.0353681 L260.837912,53 L260.724155,52.9352793 L260.559011,52.8461896 Z M272.914039,19 L277.529151,21.7577985 L278.304876,22.228999 C279.639308,23.0439589 280.745313,23.744117 281.776965,24.4322704 C292.804809,31.7882866 296.917618,39.8082668 296.998772,56.4917789 L297,57 L285.573389,57 C285.573389,49.6938794 284.715174,44.891876 283.011191,41.5088763 C281.598844,38.7048752 279.479719,36.5620073 275.610337,33.9545996 L275.389439,33.8065068 C274.540284,33.2400867 273.604841,32.6466249 272.466172,31.9492826 L271.12338,31.1355793 L267,28.6735859 L272.914039,19 Z" id="Combined-Shape" fill="#1969FF" fill-rule="nonzero"></path>
        <path d="M21.760218,402.231593 L21.760218,355.468541 L34.7284287,355.468541 L34.7284287,346.906292 L21.760218,346.906292 L21.760218,340.759036 C21.760218,333.806783 24.8007872,330.330656 30.8819255,330.330656 C32.640327,330.330656 34.5086285,330.623382 36.4868302,331.208835 L36.4868302,331.208835 L36.4868302,322.097724 C34.0690282,321.365908 31.3947926,321 28.4641235,321 C22.8225855,321 18.4448986,322.609996 15.3310627,325.829987 C12.2172268,329.049978 10.6603088,333.733601 10.6603088,339.880857 L10.6603088,339.880857 L10.6603088,346.906292 L0,346.906292 L0,355.468541 L10.6603088,355.468541 L10.6603088,402.231593 L21.760218,402.231593 Z M66.8192552,403 C71.0687254,403 74.7870118,402.121821 77.9741144,400.365462 C81.1612171,398.609103 83.5607024,396.084337 85.1725704,392.791165 L85.1725704,392.791165 L85.1725704,402.231593 L96.1625795,402.231593 L96.1625795,346.906292 L85.1725704,346.906292 L85.1725704,355.907631 C83.4874357,352.614458 81.0696337,350.071397 77.9191644,348.278447 C74.7686951,346.485498 71.0687254,345.589023 66.8192552,345.589023 C62.056918,345.589023 57.8074478,346.796519 54.0708447,349.211513 C50.3342416,351.626506 47.4218892,355.029451 45.3337875,359.420348 C43.2456857,363.811245 42.2016349,368.860776 42.2016349,374.568942 C42.2016349,380.277108 43.2273691,385.271754 45.2788374,389.552878 C47.3303058,393.834003 50.2060248,397.145471 53.9059946,399.487282 C57.6059643,401.829094 61.9103845,403 66.8192552,403 Z M69.4568574,394.218206 C64.4014532,394.218206 60.4633666,392.498438 57.6425976,389.058902 C54.8218286,385.619366 53.4114441,380.78938 53.4114441,374.568942 C53.4114441,368.275324 54.8218286,363.35386 57.6425976,359.804552 C60.4633666,356.255243 64.3648199,354.480589 69.3469573,354.480589 C74.4023615,354.480589 78.3038147,356.200357 81.051317,359.639893 C83.7988193,363.079429 85.1725704,367.982597 85.1725704,374.349398 C85.1725704,380.643017 83.7988193,385.527889 81.051317,389.004016 C78.3038147,392.480143 74.4389949,394.218206 69.4568574,394.218206 Z M123.417802,402.231593 L123.417802,370.726908 C123.417802,365.823739 124.828186,361.908523 127.648955,358.981258 C130.469724,356.053994 134.224644,354.590361 138.913715,354.590361 C143.016652,354.590361 146.002271,355.688086 147.870572,357.883534 C149.738874,360.078983 150.673025,363.5917 150.673025,368.421687 L150.673025,368.421687 L150.673025,402.231593 L161.772934,402.231593 L161.772934,367.763052 C161.772934,352.980366 155.142295,345.589023 141.881017,345.589023 C137.631547,345.589023 133.839994,346.522088 130.506358,348.38822 C127.172722,350.254351 124.626703,352.943775 122.868302,356.456493 L122.868302,356.456493 L121.879201,346.906292 L111.548592,346.906292 C112.134726,351.516734 112.427793,356.712628 112.427793,362.493976 L112.427793,362.493976 L112.427793,402.231593 L123.417802,402.231593 Z M198.919164,403 C201.996367,403 204.743869,402.597501 207.161671,401.792503 L207.161671,401.792503 L207.161671,392.791165 C205.18347,393.376618 203.241901,393.669344 201.336966,393.669344 C198.406297,393.669344 196.116712,392.882642 194.468211,391.309237 C192.819709,389.735832 191.995459,387.046408 191.995459,383.240964 L191.995459,383.240964 L191.995459,355.468541 L207.271571,355.468541 L207.271571,346.906292 L191.995459,346.906292 L191.995459,329.232932 L180.89555,333.074967 L180.89555,346.906292 L170.125341,346.906292 L170.125341,355.468541 L180.89555,355.468541 L180.89555,384.119143 C180.89555,390.266399 182.470784,394.950022 185.621253,398.170013 C188.771723,401.390004 193.20436,403 198.919164,403 Z M241.340599,403 C246.689071,403 251.414774,401.829094 255.517711,399.487282 C259.620648,397.145471 262.789434,393.815707 265.024069,389.497992 C267.258704,385.180277 268.376022,380.130745 268.376022,374.349398 C268.376022,368.56805 267.258704,363.500223 265.024069,359.145917 C262.789434,354.791611 259.620648,351.443552 255.517711,349.10174 C251.414774,346.759929 246.689071,345.589023 241.340599,345.589023 C235.918862,345.589023 231.156524,346.759929 227.053588,349.10174 C222.950651,351.443552 219.781865,354.791611 217.54723,359.145917 C215.312595,363.500223 214.195277,368.56805 214.195277,374.349398 C214.195277,380.130745 215.312595,385.180277 217.54723,389.497992 C219.781865,393.815707 222.950651,397.145471 227.053588,399.487282 C231.156524,401.829094 235.918862,403 241.340599,403 Z M241.230699,394.218206 C236.175295,394.218206 232.273842,392.535029 229.52634,389.168675 C226.778837,385.80232 225.405086,380.862561 225.405086,374.349398 C225.405086,367.982597 226.797154,363.079429 229.58129,359.639893 C232.365425,356.200357 236.285195,354.480589 241.340599,354.480589 C246.322737,354.480589 250.187557,356.200357 252.935059,359.639893 C255.682561,363.079429 257.056312,367.982597 257.056312,374.349398 C257.056312,380.862561 255.700878,385.80232 252.990009,389.168675 C250.27914,392.535029 246.35937,394.218206 241.230699,394.218206 Z M292.334242,402.231593 L292.334242,370.946452 C292.334242,365.896921 293.579776,361.908523 296.070845,358.981258 C298.561913,356.053994 301.932183,354.590361 306.181653,354.590361 C309.844989,354.590361 312.500908,355.688086 314.14941,357.883534 C315.797911,360.078983 316.622162,363.555109 316.622162,368.311914 L316.622162,368.311914 L316.622162,402.231593 L327.722071,402.231593 L327.722071,370.946452 C327.722071,365.896921 328.949289,361.908523 331.403724,358.981258 C333.858159,356.053994 337.210112,354.590361 341.459582,354.590361 C345.122919,354.590361 347.778837,355.688086 349.427339,357.883534 C351.07584,360.078983 351.900091,363.555109 351.900091,368.311914 L351.900091,368.311914 L351.900091,402.231593 L363,402.231593 L363,367.763052 C363,352.980366 356.845595,345.589023 344.536785,345.589023 C340.433848,345.589023 336.752195,346.540384 333.491826,348.443106 C330.231456,350.345828 327.758704,352.943775 326.073569,356.236948 C323.435967,349.138331 317.831063,345.589023 309.258856,345.589023 C305.229186,345.589023 301.712383,346.503793 298.708447,348.333333 C295.704511,350.162874 293.396609,352.760821 291.784741,356.127175 L291.784741,356.127175 L290.79564,346.906292 L280.465032,346.906292 C281.051166,351.516734 281.344233,356.712628 281.344233,362.493976 L281.344233,362.493976 L281.344233,402.231593 L292.334242,402.231593 Z" id="fantom" fill="#1969FF" fill-rule="nonzero"></path>
    </g>
</svg>